<?xml version="1.0" encoding="UTF-8" ?>
<!DOCTYPE svg PUBLIC "-//W3C//DTD SVG 1.1//EN" "http://www.w3.org/Graphics/SVG/1.1/DTD/svg11.dtd">
<svg width="176pt" height="225pt" viewBox="0 0 176 225" version="1.1" xmlns="http://www.w3.org/2000/svg">
<g id="#656678ff">
<path fill="#656678" opacity="1.00" d=" M 60.64 19.73 C 68.63 14.55 77.09 9.30 86.80 8.49 C 90.71 10.03 94.12 12.60 97.32 15.28 C 94.77 18.83 93.77 23.42 95.22 27.63 C 96.12 30.70 99.89 31.72 102.72 31.15 C 104.71 29.60 105.89 27.29 107.26 25.22 C 108.32 25.81 109.38 26.40 110.44 26.99 C 108.53 31.02 105.51 34.37 101.80 36.81 C 97.26 39.95 93.06 43.57 89.37 47.69 C 88.22 45.66 87.43 42.64 84.63 42.51 C 77.41 41.49 70.26 43.60 63.10 44.19 C 58.83 37.53 58.65 29.45 58.59 21.81 C 58.48 20.68 60.00 20.40 60.64 19.73 Z" />
<path fill="#656678" opacity="1.00" d=" M 118.19 143.16 C 121.54 139.03 125.66 134.98 131.12 134.06 C 136.65 133.07 141.54 136.45 146.33 138.63 C 146.22 138.23 146.01 137.42 145.91 137.02 C 146.63 138.41 147.37 139.79 148.21 141.12 C 146.35 143.85 144.42 146.72 141.42 148.31 C 136.84 150.89 131.90 152.95 127.92 156.48 C 125.49 155.02 123.01 153.12 120.01 153.28 C 114.23 153.35 108.51 154.44 102.74 154.72 C 107.40 150.18 114.17 148.42 118.19 143.16 M 133.99 136.85 C 134.76 138.71 135.09 140.96 136.66 142.35 C 138.71 143.66 141.17 142.50 143.32 142.09 C 142.14 140.54 141.26 138.54 139.44 137.63 C 137.68 137.08 135.81 137.03 133.99 136.85 Z" />
</g>
<g id="#828395ff">
<path fill="#828395" opacity="1.00" d=" M 95.22 27.63 C 93.77 23.42 94.77 18.83 97.32 15.28 C 101.29 19.63 106.32 22.80 110.44 26.99 C 109.38 26.40 108.32 25.81 107.26 25.22 C 105.89 27.29 104.71 29.60 102.72 31.15 C 99.89 31.72 96.12 30.70 95.22 27.63 Z" />
<path fill="#828395" opacity="1.00" d=" M 58.59 21.81 C 58.65 29.45 58.83 37.53 63.10 44.19 C 70.26 43.60 77.41 41.49 84.63 42.51 C 87.43 42.64 88.22 45.66 89.37 47.69 C 83.91 53.73 76.76 57.78 70.67 63.09 C 66.99 60.96 63.52 58.01 62.41 53.73 C 59.74 44.44 56.06 35.51 52.33 26.61 C 47.99 30.92 43.93 35.56 40.85 40.86 C 42.50 36.02 45.94 32.07 49.47 28.48 C 52.33 26.02 55.75 24.31 58.59 21.81 Z" />
<path fill="#828395" opacity="1.00" d=" M 102.74 154.72 C 108.51 154.44 114.23 153.35 120.01 153.28 C 123.01 153.12 125.49 155.02 127.92 156.48 C 127.63 156.74 127.05 157.24 126.75 157.50 C 121.92 161.81 116.29 165.24 110.18 167.40 C 107.25 163.57 103.67 160.29 100.79 156.42 C 101.28 155.99 102.25 155.14 102.74 154.72 Z" />
</g>
<g id="#5a5b6cff">
<path fill="#5a5b6c" opacity="1.00" d=" M 52.33 26.61 C 56.06 35.51 59.74 44.44 62.41 53.73 C 63.52 58.01 66.99 60.96 70.67 63.09 C 76.76 57.78 83.91 53.73 89.37 47.69 C 93.06 43.57 97.26 39.95 101.80 36.81 C 105.51 34.37 108.53 31.02 110.44 26.99 C 112.14 30.40 113.92 33.77 115.81 37.07 C 112.59 40.10 109.95 43.69 106.82 46.82 C 102.43 51.20 96.56 53.75 92.28 58.27 C 89.52 61.17 87.13 64.43 84.17 67.15 C 80.89 70.23 77.15 73.25 75.76 77.72 C 73.98 83.10 73.66 89.08 70.07 93.73 C 67.24 89.71 65.25 85.20 62.97 80.86 C 63.18 84.06 63.27 87.37 64.64 90.33 C 66.27 94.17 69.16 97.36 70.49 101.34 C 71.33 104.84 70.82 108.49 71.07 112.06 C 71.19 116.54 73.10 120.70 73.64 125.12 C 74.22 129.81 73.73 134.60 74.76 139.24 C 76.22 145.90 79.52 151.97 81.46 158.49 C 82.62 162.30 82.58 166.38 83.95 170.13 C 88.04 173.37 93.68 173.86 97.71 177.20 C 99.89 181.34 100.05 186.33 102.74 190.27 C 105.74 194.95 109.08 200.35 107.28 206.15 C 106.50 210.86 100.90 211.27 97.27 212.76 C 95.82 211.03 94.35 209.32 92.89 207.62 C 91.49 209.67 90.23 211.87 88.44 213.62 C 84.57 214.79 80.53 213.46 76.73 212.64 C 76.62 210.40 76.49 208.16 76.35 205.92 C 70.82 206.27 67.30 210.96 62.81 213.56 C 60.77 214.00 59.31 212.27 57.68 211.38 C 54.05 208.72 49.23 208.22 45.92 205.05 C 48.40 204.67 50.84 203.91 53.36 203.91 C 56.66 204.03 59.80 205.22 63.07 205.57 C 64.23 205.84 65.40 204.73 65.54 203.63 C 66.62 199.34 65.94 194.46 68.65 190.69 C 71.41 186.91 74.86 183.66 77.19 179.56 C 73.65 181.21 70.28 183.21 66.98 185.29 C 65.52 181.91 64.01 178.52 63.27 174.89 C 62.35 170.63 62.26 166.01 59.76 162.26 C 55.99 156.40 52.64 150.25 48.28 144.79 C 46.82 140.47 46.28 135.53 42.85 132.19 C 39.08 128.05 32.92 128.32 28.43 125.40 C 26.84 120.51 27.81 115.25 27.68 110.20 C 28.72 104.15 28.01 97.98 28.81 91.91 C 28.74 95.02 28.90 98.12 29.10 101.23 C 31.42 96.34 33.32 91.13 36.96 87.01 C 39.56 84.10 41.20 80.51 42.09 76.74 C 37.36 79.63 33.45 83.60 29.22 87.14 C 30.54 81.43 30.47 75.49 32.07 69.83 C 34.58 60.04 36.01 49.89 40.85 40.86 C 43.93 35.56 47.99 30.92 52.33 26.61 M 44.15 46.04 C 41.35 48.14 44.68 51.30 46.00 53.29 C 47.01 51.06 47.93 45.40 44.15 46.04 M 37.89 61.42 C 38.93 60.92 39.92 60.34 40.86 59.66 C 41.09 57.97 41.06 56.26 41.08 54.56 C 37.68 55.18 37.97 58.74 37.89 61.42 M 53.16 60.64 C 53.06 62.44 52.97 64.24 52.89 66.05 C 54.23 66.39 55.56 66.75 56.90 67.09 C 56.87 65.51 56.90 63.92 56.70 62.35 C 55.88 61.25 54.32 61.21 53.16 60.64 Z" />
<path fill="#5a5b6c" opacity="1.00" d=" M 148.21 141.12 C 150.83 143.43 152.83 146.31 154.81 149.16 C 151.18 151.71 147.99 154.83 144.40 157.42 C 139.96 160.60 134.40 161.73 130.05 165.06 C 126.99 167.32 124.45 170.31 121.03 172.06 C 118.28 173.70 115.63 171.01 113.28 169.86 C 116.35 168.19 119.64 167.01 122.83 165.61 C 126.13 164.14 128.60 161.41 131.17 158.96 C 130.87 158.62 130.26 157.94 129.96 157.61 C 128.89 157.57 127.82 157.53 126.75 157.50 C 127.05 157.24 127.63 156.74 127.92 156.48 C 131.90 152.95 136.84 150.89 141.42 148.31 C 144.42 146.72 146.35 143.85 148.21 141.12 Z" />
<path fill="#5a5b6c" opacity="1.00" d=" M 33.34 154.50 C 35.40 153.26 37.45 152.00 39.49 150.74 C 41.50 153.57 43.03 156.71 44.06 160.03 C 45.90 165.67 48.50 171.20 48.89 177.20 C 49.24 180.99 46.14 184.13 46.15 187.80 C 48.30 191.96 50.48 196.18 50.37 201.03 C 47.54 201.71 44.74 202.49 41.95 203.33 C 41.06 202.55 40.13 201.81 39.31 200.97 C 37.11 198.12 35.29 194.73 32.02 192.95 C 29.70 191.66 26.98 192.53 24.53 192.84 C 21.15 185.00 17.82 176.50 19.74 167.82 C 19.84 169.75 20.03 171.67 20.22 173.60 C 22.88 169.73 24.55 165.22 27.67 161.66 C 29.64 159.33 31.48 156.91 33.34 154.50 Z" />
</g>
<g id="#4f5061ff">
<path fill="#4f5061" opacity="1.00" d=" M 106.82 46.82 C 109.95 43.69 112.59 40.10 115.81 37.07 C 119.62 43.25 122.28 50.02 125.19 56.64 C 127.21 61.23 128.37 66.15 128.92 71.13 C 125.50 66.79 122.87 61.74 118.72 58.03 C 118.36 58.05 117.63 58.09 117.26 58.11 C 113.24 60.73 110.07 64.45 106.07 67.12 C 104.32 64.73 102.59 62.33 100.90 59.89 C 100.04 59.92 98.32 59.99 97.46 60.02 C 98.51 63.37 99.90 66.60 101.60 69.66 C 98.73 72.11 95.58 74.72 94.77 78.63 C 92.76 87.14 88.73 95.16 88.08 103.97 C 87.48 111.01 87.33 118.07 87.24 125.13 C 87.12 131.19 89.80 136.74 91.61 142.38 C 93.73 148.50 95.51 154.79 98.48 160.58 C 100.99 165.47 106.34 167.72 111.06 169.92 C 110.78 169.07 110.49 168.23 110.18 167.40 C 116.29 165.24 121.92 161.81 126.75 157.50 C 127.82 157.53 128.89 157.57 129.96 157.61 C 130.26 157.94 130.87 158.62 131.17 158.96 C 128.60 161.41 126.13 164.14 122.83 165.61 C 119.64 167.01 116.35 168.19 113.28 169.86 C 115.63 171.01 118.28 173.70 121.03 172.06 C 124.45 170.31 126.99 167.32 130.05 165.06 C 134.40 161.73 139.96 160.60 144.40 157.42 C 147.99 154.83 151.18 151.71 154.81 149.16 C 157.26 152.42 159.60 155.77 161.61 159.33 C 164.18 163.83 167.80 168.09 168.06 173.50 C 164.11 170.89 161.21 166.85 156.93 164.76 C 152.46 166.04 149.12 169.56 145.24 171.97 C 143.29 169.77 141.46 167.38 138.94 165.80 C 137.66 166.26 136.45 166.86 135.23 167.45 C 136.70 169.32 138.18 171.19 139.68 173.04 C 136.96 175.18 134.07 177.44 132.90 180.84 C 131.16 185.33 129.06 189.67 127.04 194.04 C 124.86 198.78 125.03 204.10 125.04 209.19 C 120.05 211.35 115.30 214.04 110.25 216.05 C 97.27 220.11 83.53 219.76 70.09 219.50 C 66.59 219.47 63.92 216.67 62.81 213.56 C 67.30 210.96 70.82 206.27 76.35 205.92 C 76.49 208.16 76.62 210.40 76.73 212.64 C 80.53 213.46 84.57 214.79 88.44 213.62 C 90.23 211.87 91.49 209.67 92.89 207.62 C 94.35 209.32 95.82 211.03 97.27 212.76 C 100.90 211.27 106.50 210.86 107.28 206.15 C 109.08 200.35 105.74 194.95 102.74 190.27 C 100.05 186.33 99.89 181.34 97.71 177.20 C 93.68 173.86 88.04 173.37 83.95 170.13 C 82.58 166.38 82.62 162.30 81.46 158.49 C 79.52 151.97 76.22 145.90 74.76 139.24 C 73.73 134.60 74.22 129.81 73.64 125.12 C 73.10 120.70 71.19 116.54 71.07 112.06 C 70.82 108.49 71.33 104.84 70.49 101.34 C 69.16 97.36 66.27 94.17 64.64 90.33 C 63.27 87.37 63.18 84.06 62.97 80.86 C 65.25 85.20 67.24 89.71 70.07 93.73 C 73.66 89.08 73.98 83.10 75.76 77.72 C 77.15 73.25 80.89 70.23 84.17 67.15 C 87.13 64.43 89.52 61.17 92.28 58.27 C 96.56 53.75 102.43 51.20 106.82 46.82 Z" />
<path fill="#4f5061" opacity="1.00" d=" M 25.90 140.90 C 26.83 139.15 27.88 137.46 28.90 135.76 C 32.97 138.33 37.46 140.11 41.59 142.55 C 44.25 144.13 45.02 147.32 46.03 150.01 C 47.84 155.97 51.61 161.18 52.75 167.36 C 54.35 175.52 57.21 183.56 56.92 191.97 C 57.00 195.79 55.71 199.82 52.03 201.57 C 51.62 201.44 50.79 201.16 50.37 201.03 C 50.48 196.18 48.30 191.96 46.15 187.80 C 46.14 184.13 49.24 180.99 48.89 177.20 C 48.50 171.20 45.90 165.67 44.06 160.03 C 43.03 156.71 41.50 153.57 39.49 150.74 C 37.45 152.00 35.40 153.26 33.34 154.50 C 28.20 156.44 22.84 159.03 20.06 164.05 C 21.57 156.24 22.64 148.22 25.90 140.90 Z" />
</g>
<g id="#808193ff">
<path fill="#808193" opacity="1.00" d=" M 44.15 46.04 C 47.93 45.40 47.01 51.06 46.00 53.29 C 44.68 51.30 41.35 48.14 44.15 46.04 Z" />
<path fill="#808193" opacity="1.00" d=" M 53.16 60.64 C 54.32 61.21 55.88 61.25 56.70 62.35 C 56.90 63.92 56.87 65.51 56.90 67.09 C 55.56 66.75 54.23 66.39 52.89 66.05 C 52.97 64.24 53.06 62.44 53.16 60.64 Z" />
</g>
<g id="#7f8091ff">
<path fill="#7f8091" opacity="1.00" d=" M 37.89 61.42 C 37.97 58.74 37.68 55.18 41.08 54.56 C 41.06 56.26 41.09 57.97 40.86 59.66 C 39.92 60.34 38.93 60.92 37.89 61.42 Z" />
</g>
<g id="#393a4bff">
<path fill="#393a4b" opacity="1.00" d=" M 106.07 67.12 C 110.07 64.45 113.24 60.73 117.26 58.11 C 117.63 58.09 118.36 58.05 118.72 58.03 C 122.87 61.74 125.50 66.79 128.92 71.13 C 130.57 73.85 130.83 77.19 130.91 80.30 C 130.82 81.83 131.10 83.33 131.54 84.79 C 131.97 86.59 131.94 88.45 131.91 90.29 C 131.73 91.52 131.99 92.74 132.48 93.88 C 134.29 101.13 134.41 108.75 137.06 115.81 C 139.31 121.81 140.80 128.22 144.41 133.61 C 145.07 134.66 145.64 135.79 145.91 137.02 C 146.01 137.42 146.22 138.23 146.33 138.63 C 141.54 136.45 136.65 133.07 131.12 134.06 C 125.66 134.98 121.54 139.03 118.19 143.16 C 114.17 148.42 107.40 150.18 102.74 154.72 C 102.25 155.14 101.28 155.99 100.79 156.42 C 103.67 160.29 107.25 163.57 110.18 167.40 C 110.49 168.23 110.78 169.07 111.06 169.92 C 106.34 167.72 100.99 165.47 98.48 160.58 C 95.51 154.79 93.73 148.50 91.61 142.38 C 89.80 136.74 87.12 131.19 87.24 125.13 C 87.33 118.07 87.48 111.01 88.08 103.97 C 88.73 95.16 92.76 87.14 94.77 78.63 C 95.58 74.72 98.73 72.11 101.60 69.66 C 99.90 66.60 98.51 63.37 97.46 60.02 C 98.32 59.99 100.04 59.92 100.90 59.89 C 102.59 62.33 104.32 64.73 106.07 67.12 Z" />
<path fill="#393a4b" opacity="1.00" d=" M 27.30 123.94 C 27.36 119.36 27.58 114.78 27.68 110.20 C 27.81 115.25 26.84 120.51 28.43 125.40 C 32.92 128.32 39.08 128.05 42.85 132.19 C 46.28 135.53 46.82 140.47 48.28 144.79 C 49.83 150.08 53.35 154.43 55.48 159.44 C 60.01 170.50 62.95 182.21 63.89 194.12 C 64.17 196.77 63.64 199.72 61.37 201.40 C 58.77 203.88 55.02 202.29 52.03 201.57 C 55.71 199.82 57.00 195.79 56.92 191.97 C 57.21 183.56 54.35 175.52 52.75 167.36 C 51.61 161.18 47.84 155.97 46.03 150.01 C 45.02 147.32 44.25 144.13 41.59 142.55 C 37.46 140.11 32.97 138.33 28.90 135.76 C 27.88 137.46 26.83 139.15 25.90 140.90 C 26.94 136.82 28.72 132.99 30.51 129.20 C 29.32 127.56 27.28 126.16 27.30 123.94 Z" />
<path fill="#393a4b" opacity="1.00" d=" M 145.24 171.97 C 149.12 169.56 152.46 166.04 156.93 164.76 C 161.21 166.85 164.11 170.89 168.06 173.50 C 165.91 180.22 163.11 186.96 158.08 192.06 C 154.00 196.06 149.60 200.09 144.06 201.89 C 137.64 204.11 131.45 206.92 125.04 209.19 C 125.03 204.10 124.86 198.78 127.04 194.04 C 129.06 189.67 131.16 185.33 132.90 180.84 C 134.07 177.44 136.96 175.18 139.68 173.04 C 138.18 171.19 136.70 169.32 135.23 167.45 C 136.45 166.86 137.66 166.26 138.94 165.80 C 141.46 167.38 143.29 169.77 145.24 171.97 Z" />
</g>
<g id="#2e2f35ff">
<path fill="#2e2f35" opacity="1.00" d=" M 29.22 87.14 C 33.45 83.60 37.36 79.63 42.09 76.74 C 41.20 80.51 39.56 84.10 36.96 87.01 C 33.32 91.13 31.42 96.34 29.10 101.23 C 28.90 98.12 28.74 95.02 28.81 91.91 C 28.87 90.31 29.05 88.72 29.22 87.14 Z" />
<path fill="#2e2f35" opacity="1.00" d=" M 24.53 192.84 C 26.98 192.53 29.70 191.66 32.02 192.95 C 35.29 194.73 37.11 198.12 39.31 200.97 C 33.54 199.71 28.07 196.84 23.59 193.00 L 24.53 192.84 Z" />
</g>
<g id="#3d3d4387">
<path fill="#3d3d43" opacity="0.53" d=" M 130.91 80.30 C 132.90 80.29 133.01 83.89 131.54 84.79 C 131.10 83.33 130.82 81.83 130.91 80.30 Z" />
</g>
<g id="#3d3e4489">
<path fill="#3d3e44" opacity="0.54" d=" M 131.91 90.29 C 133.70 90.12 133.99 93.28 132.48 93.88 C 131.99 92.74 131.73 91.52 131.91 90.29 Z" />
</g>
<g id="#818294ff">
<path fill="#818294" opacity="1.00" d=" M 133.99 136.85 C 135.81 137.03 137.68 137.08 139.44 137.63 C 141.26 138.54 142.14 140.54 143.32 142.09 C 141.17 142.50 138.71 143.66 136.66 142.35 C 135.09 140.96 134.76 138.71 133.99 136.85 Z" />
</g>
<g id="#2f3037ff">
<path fill="#2f3037" opacity="1.00" d=" M 48.28 144.79 C 52.64 150.25 55.99 156.40 59.76 162.26 C 62.26 166.01 62.35 170.63 63.27 174.89 C 64.01 178.52 65.52 181.91 66.98 185.29 C 70.28 183.21 73.65 181.21 77.19 179.56 C 74.86 183.66 71.41 186.91 68.65 190.69 C 65.94 194.46 66.62 199.34 65.54 203.63 C 65.40 204.73 64.23 205.84 63.07 205.57 C 59.80 205.22 56.66 204.03 53.36 203.91 C 50.84 203.91 48.40 204.67 45.92 205.05 C 44.32 205.36 43.13 204.18 41.95 203.33 C 44.74 202.49 47.54 201.71 50.37 201.03 C 50.79 201.16 51.62 201.44 52.03 201.57 C 55.02 202.29 58.77 203.88 61.37 201.40 C 63.64 199.72 64.17 196.77 63.89 194.12 C 62.95 182.21 60.01 170.50 55.48 159.44 C 53.35 154.43 49.83 150.08 48.28 144.79 Z" />
</g>
<g id="#2f3036ff">
<path fill="#2f3036" opacity="1.00" d=" M 20.06 164.05 C 22.84 159.03 28.20 156.44 33.34 154.50 C 31.48 156.91 29.64 159.33 27.67 161.66 C 24.55 165.22 22.88 169.73 20.22 173.60 C 20.03 171.67 19.84 169.75 19.74 167.82 C 19.76 166.55 19.86 165.30 20.06 164.05 Z" />
</g>
</svg>
