<?xml version="1.0" encoding="UTF-8" ?>
<!DOCTYPE svg PUBLIC "-//W3C//DTD SVG 1.1//EN" "http://www.w3.org/Graphics/SVG/1.1/DTD/svg11.dtd">
<svg width="47pt" height="267pt" viewBox="0 0 47 267" version="1.1" xmlns="http://www.w3.org/2000/svg">
<g id="#f2f2f1fc">
<path fill="#f2f2f1" opacity="1.00" d=" M 5.56 18.35 C 11.12 12.27 16.32 5.85 22.13 0.01 C 24.87 1.49 26.39 4.35 28.57 6.47 C 32.26 10.22 35.58 14.31 39.32 18.01 C 38.89 35.99 39.30 53.98 39.00 71.96 C 39.06 88.97 39.50 105.99 39.48 123.00 C 39.46 125.47 39.63 127.93 39.86 130.38 C 39.92 135.79 39.86 141.20 39.90 146.61 C 39.33 169.47 39.69 192.36 39.47 215.23 C 38.75 215.23 37.31 215.21 36.58 215.21 C 36.70 214.52 36.83 213.84 36.96 213.16 C 38.17 211.69 38.52 209.88 38.40 208.02 C 38.27 190.67 38.28 173.32 38.12 155.97 C 37.27 114.98 37.91 73.98 37.60 32.99 C 37.42 28.59 38.19 24.05 37.16 19.74 C 33.17 14.23 28.47 9.22 23.56 4.51 C 18.57 6.13 16.02 11.00 12.46 14.46 C 10.35 16.93 7.23 19.33 7.44 22.93 C 7.32 40.96 7.45 59.00 7.38 77.04 C 7.21 80.63 8.23 84.65 5.86 87.74 C 5.67 64.62 6.15 41.47 5.56 18.35 Z" />
</g>
<g id="#e0e0e0ff">
<path fill="#e0e0e0" opacity="1.00" d=" M 12.46 14.46 C 16.02 11.00 18.57 6.13 23.56 4.51 C 28.47 9.22 33.17 14.23 37.16 19.74 C 38.19 24.05 37.42 28.59 37.60 32.99 C 37.91 73.98 37.27 114.98 38.12 155.97 C 38.28 173.32 38.27 190.67 38.40 208.02 C 38.52 209.88 38.17 211.69 36.96 213.16 C 37.48 199.43 36.78 185.68 36.74 171.95 C 35.47 160.31 36.58 148.56 35.11 136.95 C 34.68 131.86 35.50 126.61 33.45 121.77 C 33.59 118.31 32.59 115.15 31.08 112.09 C 31.37 109.01 32.07 105.91 31.30 102.85 C 29.85 97.68 32.97 92.95 33.90 88.01 C 36.16 77.11 34.08 65.98 33.92 54.99 C 33.97 49.41 32.75 43.93 32.60 38.36 C 32.50 34.89 31.05 31.55 31.74 28.05 C 31.13 27.21 30.51 26.37 29.89 25.53 C 32.06 20.23 26.04 16.72 23.13 13.24 C 23.12 21.51 22.98 29.79 22.73 38.07 C 22.27 42.71 22.32 47.37 22.66 52.02 C 23.09 58.20 21.81 64.31 21.79 70.48 C 19.53 68.79 17.09 67.38 14.51 66.25 C 14.45 68.77 13.34 71.03 12.48 73.35 C 11.94 83.91 10.53 94.43 9.92 105.00 C 9.75 115.41 9.96 125.84 9.15 136.23 C 8.38 146.00 8.99 155.81 8.48 165.59 C 7.68 180.05 7.67 194.53 7.74 209.01 C 7.59 211.38 8.99 213.39 10.12 215.34 C 9.52 215.34 8.32 215.34 7.72 215.34 C 5.39 204.90 8.49 193.98 6.05 183.55 C 6.06 183.28 6.07 182.75 6.07 182.49 C 6.41 181.01 6.89 179.55 6.96 178.03 C 7.21 155.68 6.63 133.32 7.16 110.97 C 7.34 109.32 6.53 107.86 5.88 106.41 C 5.69 100.19 5.47 93.96 5.86 87.74 C 8.23 84.65 7.21 80.63 7.38 77.04 C 7.45 59.00 7.32 40.96 7.44 22.93 C 7.23 19.33 10.35 16.93 12.46 14.46 Z" />
</g>
<g id="#d2d2d2ff">
<path fill="#d2d2d2" opacity="1.00" d=" M 23.13 13.24 C 26.04 16.72 32.06 20.23 29.89 25.53 C 30.51 26.37 31.13 27.21 31.74 28.05 C 31.05 31.55 32.50 34.89 32.60 38.36 C 32.75 43.93 33.97 49.41 33.92 54.99 C 34.08 65.98 36.16 77.11 33.90 88.01 C 32.97 92.95 29.85 97.68 31.30 102.85 C 32.07 105.91 31.37 109.01 31.08 112.09 C 32.59 115.15 33.59 118.31 33.45 121.77 C 35.50 126.61 34.68 131.86 35.11 136.95 C 36.58 148.56 35.47 160.31 36.74 171.95 C 36.78 185.68 37.48 199.43 36.96 213.16 C 36.83 213.84 36.70 214.52 36.58 215.21 C 27.76 215.23 18.94 215.29 10.12 215.34 C 8.99 213.39 7.59 211.38 7.74 209.01 C 7.67 194.53 7.68 180.05 8.48 165.59 C 8.99 155.81 8.38 146.00 9.15 136.23 C 9.96 125.84 9.75 115.41 9.92 105.00 C 10.53 94.43 11.94 83.91 12.48 73.35 C 13.34 71.03 14.45 68.77 14.51 66.25 C 17.09 67.38 19.53 68.79 21.79 70.48 C 21.81 64.31 23.09 58.20 22.66 52.02 C 22.32 47.37 22.27 42.71 22.73 38.07 C 22.98 29.79 23.12 21.51 23.13 13.24 M 12.07 161.00 C 11.63 164.62 11.92 168.28 11.55 171.91 C 10.09 181.09 11.13 190.42 10.55 199.66 C 10.55 204.07 9.95 208.60 11.16 212.91 C 18.31 214.16 25.64 212.97 32.84 212.73 C 34.51 209.68 33.39 206.15 33.41 202.88 C 32.93 199.12 33.79 195.18 32.49 191.56 C 27.38 191.40 22.76 189.13 17.81 188.20 C 13.01 183.72 15.03 176.73 14.26 170.98 C 13.69 167.78 15.79 162.67 12.07 161.00 Z" />
</g>
<g id="#a0a5aad1">
<path fill="#a0a5aa" opacity="0.82" d=" M 39.32 18.01 C 39.74 19.30 39.82 20.66 39.81 22.01 C 39.60 58.14 40.72 94.27 39.86 130.38 C 39.63 127.93 39.46 125.47 39.48 123.00 C 39.50 105.99 39.06 88.97 39.00 71.96 C 39.30 53.98 38.89 35.99 39.32 18.01 Z" />
</g>
<g id="#979ca2c8">
<path fill="#979ca2" opacity="0.78" d=" M 4.82 19.34 L 5.56 18.35 C 6.15 41.47 5.67 64.62 5.86 87.74 C 5.47 93.96 5.69 100.19 5.88 106.41 C 5.59 131.77 5.87 157.14 6.07 182.49 C 6.07 182.75 6.06 183.28 6.05 183.55 C 5.85 194.20 6.08 204.86 6.01 215.52 C 5.83 215.62 5.47 215.82 5.29 215.92 C 5.05 176.62 4.95 137.33 5.03 98.01 C 5.10 71.79 4.53 45.56 4.82 19.34 Z" />
</g>
<g id="#f5f3f1ff">
<path fill="#f5f3f1" opacity="1.00" d=" M 5.88 106.41 C 6.53 107.86 7.34 109.32 7.16 110.97 C 6.63 133.32 7.21 155.68 6.96 178.03 C 6.89 179.55 6.41 181.01 6.07 182.49 C 5.87 157.14 5.59 131.77 5.88 106.41 Z" />
</g>
<g id="#929292ff">
<path fill="#929292" opacity="1.00" d=" M 39.47 215.23 C 39.69 192.36 39.33 169.47 39.90 146.61 C 40.34 164.72 40.03 182.85 40.23 200.97 C 40.08 205.72 40.61 210.50 40.01 215.23 L 39.47 215.23 Z" />
<path fill="#929292" opacity="1.00" d=" M 0.00 218.91 C 4.59 217.05 9.58 217.47 14.42 217.59 L 13.52 218.32 C 12.09 218.38 10.67 218.41 9.24 218.44 C 9.26 219.17 9.29 220.62 9.31 221.35 C 9.31 221.67 9.31 222.32 9.32 222.64 C 9.31 223.37 9.31 224.83 9.31 225.56 C 7.17 225.51 5.10 224.97 3.05 224.41 C 5.28 226.29 7.68 228.00 10.49 228.90 C 11.09 229.28 12.31 230.04 12.92 230.42 C 12.10 230.98 10.48 232.11 9.67 232.67 C 8.21 231.84 6.78 230.97 5.29 230.19 C 4.63 229.85 3.31 229.17 2.65 228.83 C 2.62 228.63 2.54 228.22 2.51 228.02 C 2.47 233.56 3.04 239.12 2.46 244.65 C -0.03 242.43 0.85 238.95 0.81 236.03 C 1.05 232.81 0.87 229.56 0.00 226.44 L 0.00 218.91 Z" />
</g>
<g id="#c0c0c0ff">
<path fill="#c0c0c0" opacity="1.00" d=" M 12.07 161.00 C 15.79 162.67 13.69 167.78 14.26 170.98 C 15.03 176.73 13.01 183.72 17.81 188.20 C 22.76 189.13 27.38 191.40 32.49 191.56 C 33.79 195.18 32.93 199.12 33.41 202.88 C 33.39 206.15 34.51 209.68 32.84 212.73 C 25.64 212.97 18.31 214.16 11.16 212.91 C 9.95 208.60 10.55 204.07 10.55 199.66 C 11.13 190.42 10.09 181.09 11.55 171.91 C 11.92 168.28 11.63 164.62 12.07 161.00 Z" />
</g>
<g id="#faf8f4ff">
<path fill="#faf8f4" opacity="1.00" d=" M 6.05 183.55 C 8.49 193.98 5.39 204.90 7.72 215.34 C 7.29 215.38 6.44 215.47 6.01 215.52 C 6.08 204.86 5.85 194.20 6.05 183.55 Z" />
</g>
<g id="#175895ff">
<path fill="#175895" opacity="1.00" d=" M 0.00 215.41 C 1.66 216.07 3.56 216.94 5.29 215.92 C 5.47 215.82 5.83 215.62 6.01 215.52 C 6.44 215.47 7.29 215.38 7.72 215.34 C 8.32 215.34 9.52 215.34 10.12 215.34 C 18.94 215.29 27.76 215.23 36.58 215.21 C 37.31 215.21 38.75 215.23 39.47 215.23 L 40.01 215.23 C 41.52 216.91 43.95 216.20 45.93 216.37 C 45.91 217.20 45.88 218.86 45.87 219.69 C 45.54 219.10 44.89 217.91 44.57 217.32 C 34.52 217.54 24.46 217.39 14.42 217.59 C 9.58 217.47 4.59 217.05 0.00 218.91 L 0.00 215.41 Z" />
<path fill="#175895" opacity="1.00" d=" M 3.05 224.41 C 5.10 224.97 7.17 225.51 9.31 225.56 C 11.33 225.49 13.36 225.37 15.39 225.42 C 23.18 225.95 31.01 224.87 38.82 225.46 L 38.46 226.61 C 37.24 227.52 35.87 228.19 34.51 228.85 C 32.45 228.56 30.36 228.58 28.29 228.76 C 29.17 229.43 30.06 230.07 30.97 230.71 C 29.69 231.48 28.43 232.29 27.22 233.15 C 26.39 232.30 25.50 231.51 24.50 230.88 C 24.52 232.18 24.56 233.48 24.61 234.79 C 23.29 235.26 21.77 235.91 20.50 234.89 C 20.34 233.32 20.42 231.74 20.41 230.17 C 19.22 231.04 18.13 232.02 17.13 233.10 C 15.82 232.34 14.57 231.48 13.30 230.65 C 13.80 230.52 14.78 230.25 15.27 230.12 C 15.41 229.66 15.69 228.76 15.83 228.30 C 14.05 228.48 12.27 228.70 10.49 228.90 C 7.68 228.00 5.28 226.29 3.05 224.41 Z" />
</g>
<g id="#a8a8a8ff">
<path fill="#a8a8a8" opacity="1.00" d=" M 14.42 217.59 C 24.46 217.39 34.52 217.54 44.57 217.32 C 44.89 217.91 45.54 219.10 45.87 219.69 C 45.92 221.71 45.92 223.73 45.92 225.75 C 45.61 231.15 45.68 236.57 45.97 241.97 C 45.39 242.24 44.22 242.78 43.64 243.05 C 43.59 239.49 43.38 235.94 43.35 232.39 C 43.47 230.47 43.54 228.55 43.47 226.63 C 44.04 224.75 41.74 223.08 40.51 224.98 C 39.84 225.54 39.16 226.09 38.46 226.61 L 38.82 225.46 C 31.01 224.87 23.18 225.95 15.39 225.42 C 22.24 225.17 29.04 224.13 35.92 224.61 C 35.92 224.31 35.92 223.70 35.92 223.39 C 27.01 223.95 18.22 222.35 9.32 222.64 C 9.31 222.32 9.31 221.67 9.31 221.35 C 13.89 220.98 18.48 220.62 23.08 220.74 C 27.45 220.76 31.82 221.03 36.18 220.75 C 36.31 220.23 36.57 219.18 36.70 218.66 C 28.98 218.34 21.25 218.68 13.52 218.32 L 14.42 217.59 Z" />
</g>
<g id="#13110fff">
<path fill="#13110f" opacity="1.00" d=" M 9.24 218.44 C 10.67 218.41 12.09 218.38 13.52 218.32 C 21.25 218.68 28.98 218.34 36.70 218.66 C 32.53 218.94 28.25 218.38 24.16 219.37 C 23.89 219.72 23.35 220.40 23.08 220.74 C 18.48 220.62 13.89 220.98 9.31 221.35 C 9.29 220.62 9.26 219.17 9.24 218.44 Z" />
<path fill="#13110f" opacity="1.00" d=" M 9.32 222.64 C 18.22 222.35 27.01 223.95 35.92 223.39 C 35.92 223.70 35.92 224.31 35.92 224.61 C 29.04 224.13 22.24 225.17 15.39 225.42 C 13.36 225.37 11.33 225.49 9.31 225.56 C 9.31 224.83 9.31 223.37 9.32 222.64 Z" />
<path fill="#13110f" opacity="1.00" d=" M 5.34 232.18 C 5.45 232.43 5.66 232.94 5.76 233.19 C 6.48 233.28 7.92 233.48 8.64 233.57 C 7.90 233.66 6.42 233.84 5.69 233.92 C 5.53 235.35 5.51 236.79 5.52 238.23 C 5.43 236.21 5.36 234.19 5.34 232.18 Z" />
</g>
<g id="#535252ff">
<path fill="#535252" opacity="1.00" d=" M 24.16 219.37 C 28.25 218.38 32.53 218.94 36.70 218.66 C 36.57 219.18 36.31 220.23 36.18 220.75 C 31.82 221.03 27.45 220.76 23.08 220.74 C 23.35 220.40 23.89 219.72 24.16 219.37 Z" />
</g>
<g id="#557491fe">
<path fill="#557491" opacity="1.00" d=" M 40.51 224.98 C 41.74 223.08 44.04 224.75 43.47 226.63 C 41.84 227.14 40.86 226.59 40.51 224.98 Z" />
</g>
<g id="#998e8aff">
<path fill="#998e8a" opacity="1.00" d=" M 38.46 226.61 C 39.16 226.09 39.84 225.54 40.51 224.98 C 40.86 226.59 41.84 227.14 43.47 226.63 C 43.54 228.55 43.47 230.47 43.35 232.39 C 43.25 230.73 43.13 229.08 43.03 227.43 L 42.88 227.98 C 41.34 228.81 39.76 229.58 38.27 230.51 C 36.92 231.39 35.58 232.32 34.13 233.06 C 32.57 233.82 31.16 234.82 29.83 235.94 L 29.12 236.48 C 27.88 235.81 26.62 235.15 25.35 234.52 C 25.82 234.18 26.75 233.49 27.22 233.15 C 28.43 232.29 29.69 231.48 30.97 230.71 L 30.97 230.72 C 32.13 230.06 33.31 229.44 34.51 228.85 C 35.87 228.19 37.24 227.52 38.46 226.61 Z" />
</g>
<g id="#21232853">
<path fill="#212328" opacity="0.33" d=" M 45.97 241.97 C 45.68 236.57 45.61 231.15 45.92 225.75 C 46.33 228.66 46.80 231.57 47.00 234.50 L 47.00 259.66 C 45.85 253.83 46.64 247.85 45.97 241.97 Z" />
</g>
<g id="#868787e5">
<path fill="#868787" opacity="0.90" d=" M 0.00 226.44 C 0.87 229.56 1.05 232.81 0.81 236.03 C 0.85 238.95 -0.03 242.43 2.46 244.65 L 2.48 245.13 C 1.86 245.34 0.62 245.76 0.00 245.97 L 0.00 226.44 Z" />
</g>
<g id="#07070c1d">
<path fill="#07070c" opacity="0.11" d=" M 2.51 228.02 C 2.54 228.22 2.62 228.63 2.65 228.83 C 2.71 232.87 2.67 236.95 3.52 240.92 C 4.14 241.23 5.37 241.85 5.99 242.16 C 7.59 242.21 9.19 242.37 10.77 242.67 C 7.93 243.78 5.05 244.92 2.65 246.87 C 2.61 246.43 2.53 245.56 2.48 245.13 L 2.46 244.65 C 3.04 239.12 2.47 233.56 2.51 228.02 Z" />
<path fill="#07070c" opacity="0.11" d=" M 10.49 228.90 C 12.27 228.70 14.05 228.48 15.83 228.30 C 15.69 228.76 15.41 229.66 15.27 230.12 C 14.78 230.25 13.80 230.52 13.30 230.65 C 13.21 230.59 13.01 230.48 12.92 230.42 C 12.31 230.04 11.09 229.28 10.49 228.90 Z" />
<path fill="#07070c" opacity="0.11" d=" M 28.29 228.76 C 30.36 228.58 32.45 228.56 34.51 228.85 C 33.31 229.44 32.13 230.06 30.97 230.72 L 30.97 230.71 C 30.06 230.07 29.17 229.43 28.29 228.76 Z" />
<path fill="#07070c" opacity="0.11" d=" M 17.13 233.10 C 18.13 232.02 19.22 231.04 20.41 230.17 C 20.42 231.74 20.34 233.32 20.50 234.89 C 19.33 234.38 18.24 233.71 17.13 233.10 Z" />
<path fill="#07070c" opacity="0.11" d=" M 29.12 236.48 L 29.83 235.94 C 30.89 236.78 31.94 237.63 32.99 238.48 C 31.12 238.62 29.26 238.74 27.39 238.83 C 26.99 238.62 26.21 238.20 25.81 237.99 C 26.91 237.47 28.03 237.01 29.12 236.48 Z" />
</g>
<g id="#29538bff">
<path fill="#29538b" opacity="1.00" d=" M 2.65 228.83 C 3.31 229.17 4.63 229.85 5.29 230.19 C 5.31 230.69 5.33 231.68 5.34 232.18 C 5.36 234.19 5.43 236.21 5.52 238.23 L 5.53 238.69 C 5.88 238.52 6.59 238.18 6.94 238.02 C 7.95 236.28 9.08 234.62 10.28 233.02 C 12.03 234.01 13.74 235.05 15.48 236.03 C 14.07 236.58 12.68 237.19 11.29 237.78 C 11.47 238.11 11.83 238.76 12.01 239.08 C 12.49 238.90 13.45 238.53 13.93 238.34 C 14.79 238.56 16.50 238.99 17.36 239.20 C 15.26 240.53 13.06 241.71 10.77 242.67 C 9.19 242.37 7.59 242.21 5.99 242.16 C 5.37 241.85 4.14 241.23 3.52 240.92 C 2.67 236.95 2.71 232.87 2.65 228.83 Z" />
</g>
<g id="#265088ff">
<path fill="#265088" opacity="1.00" d=" M 38.27 230.51 C 39.76 229.58 41.34 228.81 42.88 227.98 C 42.71 232.26 42.96 236.66 41.43 240.75 C 38.34 240.97 34.54 239.14 32.11 241.77 C 30.45 240.94 28.87 239.95 27.39 238.83 C 29.26 238.74 31.12 238.62 32.99 238.48 C 31.94 237.63 30.89 236.78 29.83 235.94 C 31.16 234.82 32.57 233.82 34.13 233.06 C 35.38 235.21 36.63 237.90 39.18 238.67 C 40.01 237.07 39.56 235.17 39.73 233.45 C 39.25 233.37 38.29 233.21 37.81 233.13 C 38.35 232.92 39.45 232.51 40.00 232.30 L 39.23 230.73 L 38.27 230.51 Z" />
</g>
<g id="#0102030b">
<path fill="#010203" opacity="0.04" d=" M 5.29 230.19 C 6.78 230.97 8.21 231.84 9.67 232.67 L 10.28 233.02 C 9.08 234.62 7.95 236.28 6.94 238.02 C 6.59 238.18 5.88 238.52 5.53 238.69 L 5.52 238.23 C 5.51 236.79 5.53 235.35 5.69 233.92 C 6.42 233.84 7.90 233.66 8.64 233.57 C 7.92 233.48 6.48 233.28 5.76 233.19 C 5.66 232.94 5.45 232.43 5.34 232.18 C 5.33 231.68 5.31 230.69 5.29 230.19 Z" />
<path fill="#010203" opacity="0.04" d=" M 24.50 230.88 C 25.50 231.51 26.39 232.30 27.22 233.15 C 26.75 233.49 25.82 234.18 25.35 234.52 C 25.17 234.59 24.80 234.72 24.61 234.79 C 24.56 233.48 24.52 232.18 24.50 230.88 Z" />
<path fill="#010203" opacity="0.04" d=" M 34.13 233.06 C 35.58 232.32 36.92 231.39 38.27 230.51 L 39.23 230.73 L 40.00 232.30 C 39.45 232.51 38.35 232.92 37.81 233.13 C 38.29 233.21 39.25 233.37 39.73 233.45 C 39.56 235.17 40.01 237.07 39.18 238.67 C 36.63 237.90 35.38 235.21 34.13 233.06 Z" />
<path fill="#010203" opacity="0.04" d=" M 11.29 237.78 C 12.68 237.19 14.07 236.58 15.48 236.03 C 16.09 236.32 17.30 236.91 17.91 237.20 C 16.49 237.11 15.08 237.51 13.93 238.34 C 13.45 238.53 12.49 238.90 12.01 239.08 C 11.83 238.76 11.47 238.11 11.29 237.78 Z" />
</g>
<g id="#967773ff">
<path fill="#967773" opacity="1.00" d=" M 12.92 230.42 C 13.01 230.48 13.21 230.59 13.30 230.65 C 14.57 231.48 15.82 232.34 17.13 233.10 C 18.24 233.71 19.33 234.38 20.50 234.89 C 21.77 235.91 23.29 235.26 24.61 234.79 C 24.80 234.72 25.17 234.59 25.35 234.52 C 26.62 235.15 27.88 235.81 29.12 236.48 C 28.03 237.01 26.91 237.47 25.81 237.99 C 24.44 238.79 23.15 239.72 21.86 240.64 C 20.75 239.61 19.65 238.57 18.52 237.57 L 17.91 237.20 C 17.30 236.91 16.09 236.32 15.48 236.03 C 13.74 235.05 12.03 234.01 10.28 233.02 L 9.67 232.67 C 10.48 232.11 12.10 230.98 12.92 230.42 Z" />
</g>
<g id="#181a2b81">
<path fill="#181a2b" opacity="0.51" d=" M 13.93 238.34 C 15.08 237.51 16.49 237.11 17.91 237.20 L 18.52 237.57 C 18.23 237.98 17.65 238.80 17.36 239.20 C 16.50 238.99 14.79 238.56 13.93 238.34 Z" />
</g>
<g id="#774743ff">
<path fill="#774743" opacity="1.00" d=" M 18.52 237.57 C 19.65 238.57 20.75 239.61 21.86 240.64 C 23.15 239.72 24.44 238.79 25.81 237.99 C 26.21 238.20 26.99 238.62 27.39 238.83 C 28.87 239.95 30.45 240.94 32.11 241.77 C 34.59 243.16 37.03 244.62 39.53 245.97 C 39.14 246.19 38.35 246.62 37.95 246.83 C 34.80 244.59 30.78 244.31 27.73 241.90 C 30.26 244.74 33.50 246.89 35.26 250.38 L 32.98 250.07 C 33.17 250.86 33.54 252.45 33.72 253.24 C 31.62 249.73 28.76 246.79 25.74 244.07 C 25.63 246.28 25.34 248.50 24.56 250.59 C 23.56 250.59 21.57 250.58 20.57 250.58 C 19.98 248.11 19.52 245.60 19.78 243.06 C 19.11 243.72 18.45 244.39 17.79 245.06 C 17.03 244.63 16.26 244.21 15.49 243.81 C 15.24 243.74 14.73 243.60 14.48 243.53 C 10.85 245.78 6.99 247.63 3.13 249.44 C 3.01 248.80 2.77 247.51 2.65 246.87 C 5.05 244.92 7.93 243.78 10.77 242.67 C 13.06 241.71 15.26 240.53 17.36 239.20 C 17.65 238.80 18.23 237.98 18.52 237.57 Z" />
</g>
<g id="#757472f3">
<path fill="#757472" opacity="0.95" d=" M 43.64 243.05 C 44.22 242.78 45.39 242.24 45.97 241.97 C 46.64 247.85 45.85 253.83 47.00 259.66 L 47.00 263.14 C 46.69 263.35 46.08 263.76 45.77 263.96 C 44.94 263.20 44.10 262.46 43.30 261.67 L 44.35 260.92 C 44.67 257.64 44.47 254.26 43.92 251.03 C 42.67 248.84 39.94 248.18 37.95 246.83 C 38.35 246.62 39.14 246.19 39.53 245.97 C 40.92 246.67 42.30 247.39 43.69 248.10 C 43.68 246.41 43.67 244.73 43.64 243.05 Z" />
</g>
<g id="#7e7974fd">
<path fill="#7e7974" opacity="1.00" d=" M 15.49 243.81 C 16.26 244.21 17.03 244.63 17.79 245.06 C 13.24 252.57 8.29 259.86 3.16 267.00 L 0.97 267.00 C 0.66 261.78 2.03 256.28 0.00 251.30 L 0.00 245.97 C 0.62 245.76 1.86 245.34 2.48 245.13 C 2.53 245.56 2.61 246.43 2.65 246.87 C 2.77 247.51 3.01 248.80 3.13 249.44 C 1.92 253.61 2.74 258.08 2.40 262.37 C 7.64 256.92 11.23 250.05 15.49 243.81 Z" />
</g>
<g id="#a9a29aff">
<path fill="#a9a29a" opacity="1.00" d=" M 32.98 250.07 L 35.26 250.38 C 38.12 254.01 40.78 257.79 43.30 261.67 C 44.10 262.46 44.94 263.20 45.77 263.96 C 45.93 264.72 46.26 266.24 46.42 267.00 L 43.92 267.00 C 40.45 262.46 37.18 257.78 33.72 253.24 C 33.54 252.45 33.17 250.86 32.98 250.07 Z" />
</g>
<g id="#5f5f5fc7">
<path fill="#5f5f5f" opacity="0.78" d=" M 0.00 251.30 C 2.03 256.28 0.66 261.78 0.97 267.00 L 0.00 267.00 L 0.00 251.30 Z" />
</g>
<g id="#605f5fb5">
<path fill="#605f5f" opacity="0.71" d=" M 45.77 263.96 C 46.08 263.76 46.69 263.35 47.00 263.14 L 47.00 267.00 L 46.42 267.00 C 46.26 266.24 45.93 264.72 45.77 263.96 Z" />
</g>
</svg>
